<mxfile host="app.diagrams.net" agent="Mozilla/5.0 (Macintosh; Intel Mac OS X 10_15_7) AppleWebKit/537.36 (KHTML, like Gecko) Chrome/136.0.0.0 Safari/537.36" version="26.2.14" pages="2">
  <diagram name="第 1 页" id="vO-eD6KKvzTkX6DKicCA">
    <mxGraphModel dx="2066" dy="1126" grid="1" gridSize="10" guides="1" tooltips="1" connect="1" arrows="1" fold="1" page="1" pageScale="1" pageWidth="827" pageHeight="1169" math="0" shadow="0">
      <root>
        <mxCell id="0" />
        <mxCell id="1" parent="0" />
        <mxCell id="B62NhB9mAWzKzmFTvFXY-9" style="edgeStyle=orthogonalEdgeStyle;rounded=0;orthogonalLoop=1;jettySize=auto;html=1;exitX=0.25;exitY=1;exitDx=0;exitDy=0;" edge="1" parent="1" source="B62NhB9mAWzKzmFTvFXY-1" target="B62NhB9mAWzKzmFTvFXY-2">
          <mxGeometry relative="1" as="geometry" />
        </mxCell>
        <mxCell id="B62NhB9mAWzKzmFTvFXY-12" style="edgeStyle=orthogonalEdgeStyle;rounded=0;orthogonalLoop=1;jettySize=auto;html=1;exitX=0.75;exitY=1;exitDx=0;exitDy=0;entryX=0.75;entryY=0;entryDx=0;entryDy=0;" edge="1" parent="1" source="B62NhB9mAWzKzmFTvFXY-1" target="B62NhB9mAWzKzmFTvFXY-3">
          <mxGeometry relative="1" as="geometry" />
        </mxCell>
        <mxCell id="B62NhB9mAWzKzmFTvFXY-1" value="接口层（API 层）" style="rounded=0;whiteSpace=wrap;html=1;" vertex="1" parent="1">
          <mxGeometry x="280" y="320" width="320" height="60" as="geometry" />
        </mxCell>
        <mxCell id="B62NhB9mAWzKzmFTvFXY-10" style="edgeStyle=orthogonalEdgeStyle;rounded=0;orthogonalLoop=1;jettySize=auto;html=1;exitX=0.5;exitY=1;exitDx=0;exitDy=0;entryX=0.25;entryY=0;entryDx=0;entryDy=0;" edge="1" parent="1" source="B62NhB9mAWzKzmFTvFXY-2" target="B62NhB9mAWzKzmFTvFXY-3">
          <mxGeometry relative="1" as="geometry" />
        </mxCell>
        <mxCell id="B62NhB9mAWzKzmFTvFXY-2" value="应用层（Application 层）" style="rounded=0;whiteSpace=wrap;html=1;" vertex="1" parent="1">
          <mxGeometry x="280" y="480" width="160" height="60" as="geometry" />
        </mxCell>
        <mxCell id="B62NhB9mAWzKzmFTvFXY-3" value="领域层（Domain 层）" style="rounded=0;whiteSpace=wrap;html=1;" vertex="1" parent="1">
          <mxGeometry x="280" y="640" width="320" height="60" as="geometry" />
        </mxCell>
        <mxCell id="B62NhB9mAWzKzmFTvFXY-11" style="edgeStyle=orthogonalEdgeStyle;rounded=0;orthogonalLoop=1;jettySize=auto;html=1;exitX=0.25;exitY=0;exitDx=0;exitDy=0;entryX=0.25;entryY=1;entryDx=0;entryDy=0;dashed=1;" edge="1" parent="1" source="B62NhB9mAWzKzmFTvFXY-4" target="B62NhB9mAWzKzmFTvFXY-3">
          <mxGeometry relative="1" as="geometry" />
        </mxCell>
        <mxCell id="B62NhB9mAWzKzmFTvFXY-4" value="基础设施层（Infrastructure 层）" style="rounded=0;whiteSpace=wrap;html=1;" vertex="1" parent="1">
          <mxGeometry x="280" y="800" width="320" height="60" as="geometry" />
        </mxCell>
      </root>
    </mxGraphModel>
  </diagram>
  <diagram id="o8xcDWQ79m-OdC40qL4p" name="第 2 页">
    <mxGraphModel dx="946" dy="529" grid="1" gridSize="10" guides="1" tooltips="1" connect="1" arrows="1" fold="1" page="1" pageScale="1" pageWidth="827" pageHeight="1169" math="0" shadow="0">
      <root>
        <mxCell id="0" />
        <mxCell id="1" parent="0" />
      </root>
    </mxGraphModel>
  </diagram>
</mxfile>
